/* XPM */
static char *triplea[] = {
/* columns rows colors chars-per-pixel */
"32 32 245 2 ",
"   c #0B0C0C",
".  c #111111",
"X  c #121413",
"o  c #141414",
"O  c #151515",
"+  c #171717",
"@  c #171818",
"#  c #181A1A",
"$  c #1A1A1A",
"%  c #1B1B1B",
"&  c #1F1919",
"*  c #1B1D1D",
"=  c #1C1C1C",
"-  c #1D1D1D",
";  c #1E1E1E",
":  c #1F1F1F",
">  c #301618",
",  c #331719",
"<  c #371B1C",
"1  c #202020",
"2  c #232323",
"3  c #242424",
"4  c #252525",
"5  c #262626",
"6  c #272727",
"7  c #282828",
"8  c #292929",
"9  c #2A2A2A",
"0  c #2B2B2B",
"q  c #2C2C2C",
"w  c #2C2D2D",
"e  c #2D2D2D",
"r  c #2C2F2F",
"t  c #2E2E2E",
"y  c #2F2F2F",
"u  c #2F3131",
"i  c #303030",
"p  c #313131",
"a  c #323232",
"s  c #333333",
"d  c #343434",
"f  c #353535",
"g  c #363636",
"h  c #373737",
"j  c #3D3131",
"k  c #383838",
"l  c #393939",
"z  c #3A3A3A",
"x  c #3B3B3B",
"c  c #3D3D3D",
"v  c #3E3E3E",
"b  c #3F3F3F",
"n  c #561A1D",
"m  c #4F2628",
"M  c #5C2527",
"N  c #64292C",
"B  c #404040",
"V  c #414141",
"C  c #424242",
"Z  c #434343",
"A  c #444040",
"S  c #454243",
"D  c #444444",
"F  c #454545",
"G  c #464646",
"H  c #474747",
"J  c #474848",
"K  c #484848",
"L  c #494949",
"P  c #4A4A4A",
"I  c #4B4B4B",
"U  c #4C4C4C",
"Y  c #4D4D4D",
"T  c #4E4E4E",
"R  c #4F4F4F",
"E  c #505050",
"W  c #515151",
"Q  c #525252",
"!  c #535353",
"~  c #545454",
"^  c #555555",
"/  c #565656",
"(  c #575757",
")  c #585858",
"_  c #595959",
"`  c #5A5A5A",
"'  c #5B5B5B",
"]  c #5C5C5C",
"[  c #5D5D5D",
"{  c #5E5E5E",
"}  c #5F5F5F",
"|  c #6D4E4F",
" . c #6D5758",
".. c #7E5658",
"X. c #606060",
"o. c #616161",
"O. c #626262",
"+. c #636363",
"@. c #646464",
"#. c #656565",
"$. c #666666",
"%. c #676767",
"&. c #686868",
"*. c #686969",
"=. c #696969",
"-. c #6A6A6A",
";. c #6B6B6B",
":. c #6C6C6C",
">. c #6D6D6D",
",. c #6E6E6E",
"<. c #6F6F6F",
"1. c #707070",
"2. c #717171",
"3. c #727272",
"4. c #737373",
"5. c #747474",
"6. c #757575",
"7. c #767676",
"8. c #777777",
"9. c #797979",
"0. c #7A7A7A",
"q. c #7B7B7B",
"w. c #7C7C7C",
"e. c #7E7E7E",
"r. c #7F7F7F",
"t. c #972125",
"y. c #9D2127",
"u. c #9E2126",
"i. c #9E2227",
"p. c #9F2227",
"a. c #94272C",
"s. c #9E2328",
"d. c #A02227",
"f. c #A12227",
"g. c #A32227",
"h. c #A62227",
"j. c #A02228",
"k. c #A12328",
"l. c #A32228",
"z. c #A32328",
"x. c #A52228",
"c. c #A62328",
"v. c #A82228",
"b. c #AC2329",
"n. c #AD2329",
"m. c #AE2329",
"M. c #AF2329",
"N. c #AE242A",
"B. c #AA272D",
"V. c #AD262C",
"C. c #A4282D",
"Z. c #B02329",
"A. c #B2232A",
"S. c #B3232A",
"D. c #B4232A",
"F. c #B5232A",
"G. c #B0242A",
"H. c #B3242A",
"J. c #B5242A",
"K. c #B5242B",
"L. c #B6242B",
"P. c #B7242B",
"I. c #B8242B",
"U. c #B9242B",
"Y. c #BA252C",
"T. c #AD2B31",
"R. c #817373",
"E. c #808080",
"W. c #818181",
"Q. c #808282",
"!. c #828282",
"~. c #838383",
"^. c #848484",
"/. c #858585",
"(. c #868686",
"). c #878787",
"_. c #888888",
"`. c #898989",
"'. c #8A8A8A",
"]. c #8C8C8C",
"[. c #8D8E8E",
"{. c #8E8E8E",
"}. c #919191",
"|. c #939393",
" X c #949494",
".X c #959595",
"XX c #969696",
"oX c #979797",
"OX c #989898",
"+X c #999999",
"@X c #9A9A9A",
"#X c #9C9C9C",
"$X c #9D9D9D",
"%X c #9E9E9E",
"&X c #9F9F9F",
"*X c #A0A0A0",
"=X c #A1A1A1",
"-X c #A2A2A2",
";X c #A3A3A3",
":X c #A4A4A4",
">X c #A6A6A6",
",X c #A7A7A7",
"<X c #A8A8A8",
"1X c #A9A9A9",
"2X c #A9ABAB",
"3X c #AEAEAE",
"4X c #B0B0B0",
"5X c #B1B1B1",
"6X c #B4B4B4",
"7X c #B5B5B5",
"8X c #B6B6B6",
"9X c #B6B7B7",
"0X c #B7B7B7",
"qX c #B9B9B9",
"wX c #BABABA",
"eX c #BBBBBB",
"rX c #BCBCBC",
"tX c #BDBDBD",
"yX c #BEBEBE",
"uX c #BFBFBF",
"iX c #C0C0C0",
"pX c #C1C1C1",
"aX c #C2C2C2",
"sX c #C4C4C4",
"dX c #C5C5C5",
"fX c #C6C6C6",
"gX c #C7C7C7",
"hX c #C8C8C8",
"jX c #CACACA",
"kX c #CCCCCC",
"lX c #CDCDCD",
"zX c #CECECE",
"xX c #D0D0D0",
"cX c #D2D2D2",
"vX c #D3D3D3",
"bX c #D4D4D4",
"nX c #E0E0E0",
"mX c #E3E3E3",
"MX c #E4E4E4",
"NX c #E5E5E5",
"BX c #E7E7E7",
"VX c #ECECEC",
"CX c #F0F0F0",
"ZX c #F1F1F1",
"AX c None",
/* pixels */
"AXAXAXAXAXAXAXAXAXAXAXAXAXAXAXAXAXAXAXAXAXAXAXAXAXAXAXAXAXAXAXAX",
"AXAXR AXAXAXAXAXAXAXAXAXAXAXAXAXAXAXAXAXAXAXAXAXAXAXAXAXAXAXAXAX",
"AXP #.AXAXAXAXAXAXAXAXAXAXAXAXAXAXAXAXAXAXAXAXAXAXAXAXAXAXAXAXAX",
"AXAXAX-.e.AXAXR #.AXAXAXAXAXAXAXAXAXAXAXAXAXAXAXAXAXAXAXAXAXAXAX",
"AXAXAXAX#.|.,X7._ AXAXAXAXAXAXAXAXAXAXAXAXAXAXAXAXAXAXAXAXAXAXAX",
"AXAXAXAXAX#./.{.`.AXAXAXAXAXAXAXAXAXAXAXAXAXAXAXAXAXAXAXAXAXAXAX",
"AXAXAXAXE 1.o.P :.-.AXAXf o.#.AXAXAXAXAXAXAXAXAXAXAXAXAXAXAXAXAX",
"AXAXAXAX#.#.AXAXAXAXAX% o.$X=X:.AXAXAXAXAXAXAXAXAXAXAXAXAXAXAXAX",
"AXAXAXAXAXAXAXAXAXAXAXf 1. X X:.; q 2 4 0 f f i i f f k f f AXAX",
"AXAXAXAXAXAXAXAXAX; k P [ 1.7._ :.!.7.7.1.!.9.-.9.9.( P V k AXAX",
"AXAXAXAXAXAXAXAX+ _  X`.1.7.7. X X-.V k P E G o.#.AXAXAXAXAXAXAX",
"AXAXAXAXAXAXAXAXq o.#X4X X`.=X=XP i V [ _ [ o.P AXAXAXAXAXAXAXAX",
"AXAXAXAXAXAXAX; v ( :.#X,X=X|./.o._ _ ( E G AXAXAXAXAXAXAXAXAXAX",
"AXAXAXAXAXi V V G P ( :.|.).R f k 0 & AXAXAXAXAXAXAXAXAXAXAXAXAX",
"AXAXAXAXAXV ( E ( R V G [ G + + % n p.l.g.p.p.p.g.g.g.t.AXAXAXAX",
"AXAXAXAX. V E P [ #.P 0 ; AXAXAXAXAXU.L.L.L.H.L.L.L.L.AXAXAXAXAX",
"AXAXAXAXk [ #.( #.-._ b AXAXAXAXAXAXAXAXAXL.x.AXAXAXAXAXAXAXAXAX",
"AXAXAXAXV [ o.-./.&.E v AXAXAXAXAXAXAXAXU.Z.AXAXAXs.AXAXAXAXAXAX",
"AXAXAXAXAXv P -.|.!.X.o.v AXAXAXAXAXAXAXL.AXAXAXU.m.AXAXAXAXAXAX",
"AXAXAXAXAXAXi :. X!.! 9.9.o.v AXAXAXAXU.m.AXAXAXZ.L.l.AXAXAXAXAX",
"AXAXAXAXAXAXi 1.=Xr.k ( 7.~.!.o.AXAXAXL.AXAXAXL.x.AXM.AXAXAXAXAX",
"AXAXAXAXAXAXf !.,X7.+ 4 V o.e.1.AXAXU.m.AXAXAXm.AXAXL.z.AXAXAXAX",
"AXAXAXAXAXP 9.`.,XE ; AX: R 9.#.AXAXL.AXAXAXU.v.p.p.m.M.AXAXAXAX",
"AX#.G k 4 R -.9.!.E i 2 ; E e.-.AXY.V.AXAXAXD.D.AXAXAXU.c.AXAXAX",
"f 0 Z i G [ :.#.,XvX9X/.G v :.J N m.M r j B.a.AXAXAXAXAXH.p.AXAX",
"% G X.G o._ -.9XVXCXCXNX=XP <.[  .| V u m l.< * 4 q AXAXT.C.AXAX",
"2 k k ( _ #XzXnXmXNXNXmX,XR 1.!.9X2X#X`.R...S q ; o . @ , > 1 AX",
"4 i E #./.wXyXwXaXhXcXcX/.( e.-.e.+X:X+X{.Q.7.o.R v q ; o   q $X",
"4 V E #.e.*X1X9XaXkXcXxX_.E [ } [ 1.#X|.`.e.1.#._ R G f q 0 7.`.",
"k -.1.7.,XyXdXhXzXzXzXkXrX$X+X_./. X#X X`.e.7.-.o.( R G v V 7.v ",
" X1X4X4XqXyXaXsXdXdXdXdXsXaXyXwX7X3X,X=X#X|.`./.e.7.1.-.o.( 0 X ",
"AX-.V S G K P P U U R U I P J G Z V v k f f i q 0 4 2 1 ; + . AX"
};
